<?xml version="1.0" encoding="UTF-8" standalone="no"?>
<!DOCTYPE svg PUBLIC "-//W3C//DTD SVG 20010904//EN"
              "http://www.w3.org/TR/2001/REC-SVG-20010904/DTD/svg10.dtd">

<svg xmlns="http://www.w3.org/2000/svg"
     width="86.6988mm" height="86.6988mm"
     viewBox="0 0 1024 1024">
  <path id="Sélection"
        fill="#0077ff" stroke="black" stroke-width="1"
        d="M 331.00,981.00
           C 324.41,979.12 313.51,971.98 307.00,968.28
             307.00,968.28 258.00,940.01 258.00,940.01
             258.00,940.01 121.00,861.28 121.00,861.28
             121.00,861.28 75.00,834.72 75.00,834.72
             61.81,827.20 59.02,827.63 59.00,817.00
             59.00,817.00 59.00,310.00 59.00,310.00
             59.02,300.26 61.47,300.89 74.00,293.86
             74.00,293.86 116.00,269.85 116.00,269.85
             116.00,269.85 220.00,209.85 220.00,209.85
             220.00,209.85 299.00,164.55 299.00,164.55
             299.00,164.55 454.00,75.40 454.00,75.40
             454.00,75.40 496.00,51.15 496.00,51.15
             499.43,49.19 509.55,42.73 513.00,43.09
             515.50,43.34 520.58,46.78 523.00,48.14
             523.00,48.14 546.00,61.32 546.00,61.32
             546.00,61.32 573.00,76.85 573.00,76.85
             573.00,76.85 614.00,100.58 614.00,100.58
             614.00,100.58 863.00,243.85 863.00,243.85
             863.00,243.85 941.00,288.72 941.00,288.72
             941.00,288.72 957.00,297.99 957.00,297.99
             958.82,299.05 962.89,301.04 964.01,302.63
             965.25,304.42 965.00,307.86 965.00,310.00
             965.00,310.00 965.00,817.00 965.00,817.00
             964.98,827.63 962.19,827.20 949.00,834.72
             949.00,834.72 904.00,860.72 904.00,860.72
             904.00,860.72 800.00,920.58 800.00,920.58
             800.00,920.58 764.00,941.20 764.00,941.20
             764.00,941.20 717.00,968.28 717.00,968.28
             710.60,971.92 700.82,978.70 694.00,980.00
             694.00,980.00 694.00,741.00 694.00,741.00
             694.00,741.00 651.00,765.57 651.00,765.57
             651.00,765.57 564.00,815.43 564.00,815.43
             564.00,815.43 528.00,836.20 528.00,836.20
             528.00,836.20 512.00,844.22 512.00,844.22
             512.00,844.22 497.00,836.86 497.00,836.86
             497.00,836.86 463.00,817.28 463.00,817.28
             463.00,817.28 373.00,765.57 373.00,765.57
             373.00,765.57 331.00,742.00 331.00,742.00
             331.00,742.00 331.00,981.00 331.00,981.00 Z
           M 870.00,323.00
           C 870.00,323.00 851.00,311.99 851.00,311.99
             851.00,311.99 793.00,278.57 793.00,278.57
             793.00,278.57 609.00,172.58 609.00,172.58
             609.00,172.58 540.00,133.00 540.00,133.00
             540.00,133.00 522.00,122.42 522.00,122.42
             522.00,122.42 512.00,118.35 512.00,118.35
             512.00,118.35 500.00,124.14 500.00,124.14
             500.00,124.14 474.00,138.99 474.00,138.99
             474.00,138.99 410.00,175.72 410.00,175.72
             410.00,175.72 376.00,196.00 376.00,196.00
             376.00,196.00 417.00,219.85 417.00,219.85
             417.00,219.85 479.00,255.43 479.00,255.43
             479.00,255.43 571.00,308.42 571.00,308.42
             571.00,308.42 646.00,351.77 646.00,351.77
             646.00,351.77 675.00,368.57 675.00,368.57
             675.00,368.57 710.00,388.60 710.00,388.60
             710.00,388.60 726.00,397.85 726.00,397.85
             728.81,399.45 731.60,401.54 735.00,400.80
             737.26,400.30 746.36,394.78 749.00,393.28
             749.00,393.28 779.00,376.00 779.00,376.00
             779.00,376.00 844.00,338.45 844.00,338.45
             844.00,338.45 870.00,323.00 870.00,323.00 Z
           M 668.00,440.00
           C 663.92,435.37 645.41,425.36 639.00,421.72
             639.00,421.72 583.00,389.72 583.00,389.72
             583.00,389.72 400.00,284.28 400.00,284.28
             400.00,284.28 337.00,248.00 337.00,248.00
             337.00,248.00 320.00,238.15 320.00,238.15
             317.71,236.84 313.54,233.99 311.00,233.91
             307.55,233.81 293.72,242.58 290.00,244.80
             290.00,244.80 240.00,273.58 240.00,273.58
             240.00,273.58 152.00,324.14 152.00,324.14
             152.00,324.14 133.00,335.00 133.00,335.00
             130.79,336.27 126.32,338.48 124.99,340.53
             123.76,342.43 124.00,345.77 124.00,348.00
             124.00,348.00 124.00,780.00 124.00,780.00
             124.00,782.23 123.76,785.57 124.99,787.47
             126.36,789.59 131.66,792.21 134.00,793.60
             134.00,793.60 156.00,806.40 156.00,806.40
             156.00,806.40 229.00,848.28 229.00,848.28
             229.00,848.28 266.00,869.00 266.00,869.00
             266.00,869.00 266.00,388.00 266.00,388.00
             266.00,388.00 326.00,422.43 326.00,422.43
             326.00,422.43 448.00,492.85 448.00,492.85
             448.00,492.85 494.00,519.20 494.00,519.20
             497.88,521.51 508.99,528.93 513.00,528.45
             515.83,528.12 524.08,522.94 527.00,521.28
             527.00,521.28 558.00,503.28 558.00,503.28
             558.00,503.28 668.00,440.00 668.00,440.00 Z
           M 900.00,381.00
           C 900.00,381.00 874.00,395.58 874.00,395.58
             874.00,395.58 821.00,426.15 821.00,426.15
             821.00,426.15 657.00,520.43 657.00,520.43
             657.00,520.43 614.00,545.30 614.00,545.30
             614.00,545.30 541.00,587.42 541.00,587.42
             541.00,587.42 522.00,598.28 522.00,598.28
             522.00,598.28 512.00,602.87 512.00,602.87
             512.00,602.87 497.00,595.42 497.00,595.42
             497.00,595.42 463.00,575.85 463.00,575.85
             463.00,575.85 377.00,526.58 377.00,526.58
             377.00,526.58 331.00,501.00 331.00,501.00
             331.00,501.00 331.00,659.00 331.00,659.00
             331.00,661.14 330.75,664.58 331.99,666.37
             333.10,667.95 337.19,669.97 339.00,671.00
             339.00,671.00 356.00,680.80 356.00,680.80
             356.00,680.80 440.00,729.28 440.00,729.28
             440.00,729.28 493.00,759.77 493.00,759.77
             497.29,762.10 508.70,769.97 513.00,769.22
             515.77,768.74 529.56,760.39 533.00,758.42
             533.00,758.42 579.00,731.85 579.00,731.85
             579.00,731.85 621.99,706.85 621.99,706.85
             621.99,706.85 641.00,696.42 641.00,696.42
             641.00,696.42 659.00,685.42 659.00,685.42
             659.00,685.42 694.00,665.55 694.00,665.55
             694.00,665.55 736.00,641.00 736.00,641.00
             736.00,641.00 759.00,628.00 759.00,628.00
             759.00,628.00 759.00,868.00 759.00,868.00
             759.00,868.00 795.00,848.28 795.00,848.28
             795.00,848.28 869.00,805.80 869.00,805.80
             869.00,805.80 890.00,793.60 890.00,793.60
             890.00,793.60 899.01,787.39 899.01,787.39
             899.01,787.39 900.00,780.00 900.00,780.00
             900.00,780.00 900.00,381.00 900.00,381.00 Z" />
</svg>
